<?xml version="1.0" standalone="no"?>
<!DOCTYPE svg PUBLIC "-//W3C//DTD SVG 20010904//EN"
        "http://www.w3.org/TR/2001/REC-SVG-20010904/DTD/svg10.dtd">
<svg version="1.0" xmlns="http://www.w3.org/2000/svg"
     width="1025.000000pt" height="1025.000000pt" viewBox="0 0 1025.000000 1025.000000"
     preserveAspectRatio="xMidYMid meet">
    <metadata>
        Created by potrace 1.11, written by Peter Selinger 2001-2013
    </metadata>
    <g transform="translate(0.000000,1025.000000) scale(0.100000,-0.100000)"
       fill="#000000" stroke="none">
        <path d="M50 9492 c-16 -16 -33 -47 -39 -69 -8 -29 -10 -905 -9 -3054 l3
-3014 23 -58 c15 -35 45 -81 80 -118 l56 -61 2072 -1036 c1958 -979 2075
-1036 2124 -1036 47 0 56 4 85 36 49 53 55 109 55 544 0 419 -3 446 -62 556
-19 36 -58 84 -100 123 -67 62 -108 83 -1471 763 -1352 673 -1405 701 -1468
760 -69 64 -118 143 -139 222 -9 34 -13 439 -14 1675 -1 897 1 1674 5 1729 9
124 24 150 92 154 32 2 67 -5 114 -24 37 -15 676 -331 1418 -702 743 -371
1374 -683 1404 -693 106 -37 161 -19 197 63 17 39 19 81 22 460 3 358 1 426
-13 480 -25 97 -53 147 -125 219 l-66 67 -1994 997 c-1097 549 -2023 1008
-2058 1021 -36 14 -84 24 -113 24 -42 0 -55 -5 -79 -28z"/>
        <path d="M10060 9509 c-19 -6 -1094 -539 -2388 -1184 l-2353 -1174 -68 -68
c-72 -72 -102 -131 -122 -238 -6 -31 -8 -1220 -7 -3020 l3 -2970 23 -46 c29
-59 55 -73 126 -67 68 6 291 115 2940 1442 1729 866 1863 935 1912 984 30 28
63 70 74 92 52 102 50 36 49 1700 0 1725 5 1608 -68 1657 -74 50 7 86 -1522
-677 -772 -385 -1424 -714 -1449 -732 -24 -18 -55 -51 -67 -73 l-23 -40 0
-510 c0 -318 4 -524 10 -547 12 -42 61 -88 94 -88 12 0 399 187 858 415 460
228 848 417 862 421 19 4 31 0 50 -20 l26 -25 0 -397 c0 -433 -1 -442 -59
-483 -62 -44 -2381 -1201 -2438 -1217 -96 -26 -134 -3 -153 94 -5 27 -9 776
-10 1707 -2 1496 0 1666 14 1720 38 142 122 258 244 338 37 25 353 185 702
357 349 172 1102 546 1672 831 993 496 1040 521 1103 580 75 71 109 123 136
210 17 55 19 97 19 464 0 257 -4 423 -11 456 -21 95 -87 135 -179 108z"/>
    </g>
</svg>
