<?xml version="1.0" encoding="utf-8"?>
<!-- Generator: Adobe Illustrator 18.0.0, SVG Export Plug-In . SVG Version: 6.00 Build 0)  -->
<!DOCTYPE svg PUBLIC "-//W3C//DTD SVG 1.1//EN" "http://www.w3.org/Graphics/SVG/1.1/DTD/svg11.dtd">
<svg version="1.1" id="Layer_1" xmlns="http://www.w3.org/2000/svg" xmlns:xlink="http://www.w3.org/1999/xlink" x="0px" y="0px"
	 width="249px" height="214.334px" viewBox="0 0 249 214.334" enable-background="new 0 0 249 214.334" xml:space="preserve">
<g>
	<path fill="#CE2020" d="M101.159,171.97c-20.925-10.256-41.693-20.83-62.595-31.129c-5.248-2.586-7.66-6.297-7.549-12.225
		c0.234-12.323,0.04-63.968,0.085-75.462c0.026-6.388,1.27-7.096,7.137-4.257c1.199,0.581,43.187,21.596,63.004,31.478
		c6.061,3.022,7.881,1.958,7.957-4.628c0.055-4.83-0.109-9.665,0.043-14.491c0.182-5.682-2.348-9.433-7.402-11.863
		C94.04,45.644,32.46,14.73,9.374,3.22c-5.81-2.897-8.065-1.912-8.07,3.523C1.262,53.38,1.29,100.018,1.289,146.655
		c0,4.22,1.758,7.467,5.521,9.355c31.994,16.055,63.998,32.086,96.041,48.045c4.189,2.086,6.17,0.719,6.311-4.137
		c0.143-4.993-0.127-10.001,0.096-14.988C109.54,178.644,106.777,174.724,101.159,171.97z"/>
	<path fill="#CE2020" d="M247.327,76.455c0.048-9.073-6.911-4.508-6.911-4.508s-60.38,30.138-64.58,32.237
		c-4.199,2.099-3.619,5.01-3.619,5.01s0,15.168,0,21.668s4.346,3.771,4.346,3.771s19.041-9.497,36.45-18.178l1.739-0.867
		c0,0,0.013-0.007,0.026-0.014c0.003-0.001,0.006-0.003,0.009-0.004c0.339-0.167,3.01-1.384,3.011,1.622
		c0.001,3.207-0.005,17.291-0.005,17.291s0.24,2.244-2.017,3.386c-3.906,1.952-38.009,19.241-54.267,27.338
		c-6.468,3.224-7.687,2.422-7.689-5.035c-0.008-24.155,0.262-48.315-0.143-72.463c-0.13-7.769,2.633-12.2,9.574-15.57
		c25.592-12.423,50.921-25.39,76.436-37.976c5.275-2.601,7.867-6.261,7.597-12.176c-0.222-4.821-0.021-9.661-0.058-14.492
		c-0.047-5.799-1.82-7.044-6.912-4.508c-36.635,18.252-73.234,36.571-109.85,54.86c-4.347,2.171-6.234,5.702-6.232,10.496
		c0.023,46.152-0.003,92.305,0.029,138.457c0.004,5.633,1.998,6.869,7.193,4.279c36.643-18.264,73.252-36.596,109.863-54.92
		c3.933-1.967,5.959-5.154,5.934-9.613c-0.008-1.316,0.001-3.162,0.017-5.107C247.269,141.438,247.302,81.25,247.327,76.455z"/>
</g>
</svg>
