<svg id="Layer_1" data-name="Layer 1" xmlns="http://www.w3.org/2000/svg" viewBox="0 0 962.4 210.75">
    <defs>
        <style>.cls-1{fill:#ce2020;}.cls-2{fill:#9d9d9d;}</style>
    </defs>
    <title>personal-logo</title>
    <path class="cls-1"
          d="M101.16,172c-20.93-10.26-41.69-20.83-62.6-31.13-5.25-2.59-7.66-6.3-7.55-12.23,0.23-12.32,0-64,.08-75.46,0-6.39,1.27-7.1,7.14-4.26,1.2,0.58,43.19,21.6,63,31.48,6.06,3,7.88,2,8-4.63,0.06-4.83-.11-9.67,0-14.49,0.18-5.68-2.35-9.43-7.4-11.86C94,45.64,32.46,14.73,9.37,3.22,3.56,0.32,1.31,1.31,1.3,6.74q-0.06,70,0,139.91c0,4.22,1.76,7.47,5.52,9.35q48,24.08,96,48c4.19,2.09,6.17.72,6.31-4.14s-0.13-10,.1-15C109.54,178.64,106.78,174.72,101.16,172Z"
          transform="translate(-1.28 -1.63)"/>
    <path class="cls-1"
          d="M247.33,76.46c0-9.07-6.91-4.51-6.91-4.51l-64.58,32.24c-4.2,2.1-3.62,5-3.62,5v21.67c0,6.5,4.35,3.77,4.35,3.77L213,116.45l1.74-.87h0c0.34-.17,3-1.38,3,1.62,0,3.21,0,17.29,0,17.29a3.54,3.54,0,0,1-2,3.39c-3.91,2-38,19.24-54.27,27.34-6.47,3.22-7.69,2.42-7.69-5,0-24.15.26-48.32-.14-72.46-0.13-7.77,2.63-12.2,9.57-15.57,25.59-12.42,50.92-25.39,76.44-38,5.27-2.6,7.87-6.26,7.6-12.18-0.22-4.82,0-9.66-.06-14.49,0-5.8-1.82-7-6.91-4.51q-55,27.38-109.85,54.86c-4.35,2.17-6.23,5.7-6.23,10.5q0,69.23,0,138.46c0,5.63,2,6.87,7.19,4.28q55-27.4,109.86-54.92a10,10,0,0,0,5.93-9.61c0-1.32,0-3.16,0-5.11C247.27,141.44,247.3,81.25,247.33,76.46Z"
          transform="translate(-1.28 -1.63)"/>
    <path class="cls-2"
          d="M438.32,71.76q-10,0-15.79,6.66t-5.79,18.24q0,11.91,5.58,18.41t15.92,6.5a54.32,54.32,0,0,0,14.49-2.28v6.18a44.63,44.63,0,0,1-15.56,2.37q-13.41,0-20.69-8.13t-7.28-23.12a36.48,36.48,0,0,1,3.51-16.44,25.18,25.18,0,0,1,10.13-10.87,30.65,30.65,0,0,1,15.58-3.82,37.61,37.61,0,0,1,16.69,3.49l-3,6.06A32.17,32.17,0,0,0,438.32,71.76Z"
          transform="translate(-1.28 -1.63)"/>
    <path class="cls-2"
          d="M504.19,104.21q0,11.12-5.6,17.37t-15.48,6.25A20.51,20.51,0,0,1,472.27,125a18.91,18.91,0,0,1-7.3-8.22,28.63,28.63,0,0,1-2.57-12.53q0-11.12,5.56-17.33t15.44-6.21q9.55,0,15.17,6.35T504.19,104.21Zm-34.66,0q0,8.72,3.49,13.28t10.25,4.56q6.76,0,10.27-4.54t3.51-13.3q0-8.67-3.51-13.18t-10.36-4.5q-6.77,0-10.21,4.44T469.54,104.21Z"
          transform="translate(-1.28 -1.63)"/>
    <path class="cls-2"
          d="M537,80.68a27,27,0,0,1,5.44.5l-1,6.39a23.47,23.47,0,0,0-5-.62,12.12,12.12,0,0,0-9.44,4.48,16.35,16.35,0,0,0-3.92,11.16V127h-6.89V81.51H522l0.79,8.43h0.33a20,20,0,0,1,6.1-6.85A13.73,13.73,0,0,1,537,80.68Z"
          transform="translate(-1.28 -1.63)"/>
    <path class="cls-2"
          d="M543.74,81.51h7.39l10,25.94a98.86,98.86,0,0,1,4.07,12.82h0.33q0.54-2.12,2.26-7.24T579,81.51h7.39l-19.55,51.8Q564,141,560.08,144.2a14.43,14.43,0,0,1-9.53,3.22,27.75,27.75,0,0,1-6.23-.71v-5.52a24,24,0,0,0,5.11.5q7.1,0,10.13-8l2.53-6.47Z"
          transform="translate(-1.28 -1.63)"/>
    <path class="cls-2"
          d="M643.6,95.21h20.63v29.51a66.2,66.2,0,0,1-9.79,2.32,74.6,74.6,0,0,1-11.54.79q-13.78,0-21.46-8.2t-7.68-23a34.71,34.71,0,0,1,3.8-16.58,25.69,25.69,0,0,1,10.94-10.87,35.43,35.43,0,0,1,16.73-3.76A45.71,45.71,0,0,1,663.32,69l-2.74,6.23a40.42,40.42,0,0,0-15.81-3.49q-11.08,0-17.31,6.6t-6.23,18.3q0,12.29,6,18.64t17.62,6.35a52.34,52.34,0,0,0,12.33-1.45V101.52H643.6V95.21Z"
          transform="translate(-1.28 -1.63)"/>
    <path class="cls-2"
          d="M677.18,69.19a4.57,4.57,0,0,1,1.16-3.47,4.3,4.3,0,0,1,5.77,0,4.49,4.49,0,0,1,1.2,3.44,4.56,4.56,0,0,1-1.2,3.47,4,4,0,0,1-2.86,1.14,4,4,0,0,1-2.91-1.14A4.66,4.66,0,0,1,677.18,69.19ZM684.65,127h-6.89V81.51h6.89V127Z"
          transform="translate(-1.28 -1.63)"/>
    <path class="cls-2"
          d="M730.39,127V97.57q0-5.56-2.53-8.3t-7.93-2.74q-7.14,0-10.46,3.86t-3.32,12.74V127h-6.89V81.51h5.6L706,87.74h0.33a14.07,14.07,0,0,1,5.93-5.21,19.3,19.3,0,0,1,8.51-1.85q8.22,0,12.37,4t4.15,12.68V127h-6.89Z"
          transform="translate(-1.28 -1.63)"/>
    <path class="cls-2"
          d="M780.77,114.59a11.39,11.39,0,0,1-4.73,9.79q-4.73,3.45-13.28,3.45-9,0-14.11-2.86v-6.39a34.11,34.11,0,0,0,7,2.62,29.36,29.36,0,0,0,7.24,1q5.4,0,8.3-1.72a5.93,5.93,0,0,0,.6-9.79q-2.3-1.89-9-4.46a48.62,48.62,0,0,1-9-4.13,12.31,12.31,0,0,1-4-4,10.44,10.44,0,0,1-1.31-5.35A10.21,10.21,0,0,1,753,83.9q4.52-3.22,12.41-3.22a36.31,36.31,0,0,1,14.36,3l-2.45,5.6A33,33,0,0,0,765,86.45q-4.9,0-7.39,1.54a4.75,4.75,0,0,0-2.49,4.23,5.16,5.16,0,0,0,.93,3.11,9.2,9.2,0,0,0,3,2.45,67.09,67.09,0,0,0,8,3.36q8.09,2.95,10.94,5.94A10.47,10.47,0,0,1,780.77,114.59Z"
          transform="translate(-1.28 -1.63)"/>
    <path class="cls-2"
          d="M813.15,80.76q9,0,13.92,6.12t5,17.33q0,11.21-5,17.41t-13.88,6.21a19.69,19.69,0,0,1-8.11-1.64,15.26,15.26,0,0,1-6.16-5h-0.5L796.92,127H792V62.42h6.89V78.11q0,5.27-.33,9.46h0.33Q803.68,80.76,813.15,80.76Zm-1,5.77q-7.06,0-10.17,4t-3.11,13.63q0,9.59,3.2,13.72t10.25,4.13q6.35,0,9.46-4.63t3.11-13.3q0-8.88-3.11-13.24T812.15,86.53Z"
          transform="translate(-1.28 -1.63)"/>
    <path class="cls-2"
          d="M863.28,127.83q-10.09,0-15.92-6.14t-5.83-17.06q0-11,5.42-17.47t14.55-6.47q8.55,0,13.53,5.62t5,14.84v4.36H848.67q0.21,8,4,12.16t10.81,4.15a36.62,36.62,0,0,0,14.53-3.07v6.14a36.43,36.43,0,0,1-6.91,2.26A38.87,38.87,0,0,1,863.28,127.83Zm-1.87-41.38A11.25,11.25,0,0,0,852.68,90q-3.26,3.57-3.84,9.88h23.78q0-6.52-2.91-10T861.42,86.45Z"
          transform="translate(-1.28 -1.63)"/>
    <path class="cls-2"
          d="M912.51,80.68a27,27,0,0,1,5.44.5l-1,6.39a23.47,23.47,0,0,0-5-.62,12.12,12.12,0,0,0-9.44,4.48,16.35,16.35,0,0,0-3.92,11.16V127h-6.89V81.51h5.69l0.79,8.43h0.33a20,20,0,0,1,6.1-6.85A13.73,13.73,0,0,1,912.51,80.68Z"
          transform="translate(-1.28 -1.63)"/>
    <path class="cls-2"
          d="M963.68,81.51v4.36l-8.42,1a14.79,14.79,0,0,1,3,9.09,13.45,13.45,0,0,1-4.57,10.67q-4.57,4-12.53,4a20.75,20.75,0,0,1-3.82-.33q-4.4,2.33-4.4,5.85a3,3,0,0,0,1.54,2.76q1.54,0.89,5.27.89h8.05q7.39,0,11.35,3.11t4,9A12.92,12.92,0,0,1,957,143.46q-6.06,4-17.68,4-8.93,0-13.76-3.32a10.72,10.72,0,0,1-4.83-9.38,10.53,10.53,0,0,1,2.66-7.18,13.52,13.52,0,0,1,7.47-4.11A7.21,7.21,0,0,1,928,121a6.49,6.49,0,0,1-1.18-3.86,7.33,7.33,0,0,1,1.33-4.36,14,14,0,0,1,4.19-3.61,12.29,12.29,0,0,1-5.75-4.94,14.51,14.51,0,0,1-2.22-8q0-7.47,4.48-11.52t12.7-4a23.1,23.1,0,0,1,6.43.83h15.73Zm-36.27,53.13a6.18,6.18,0,0,0,3.11,5.6q3.11,1.91,8.92,1.91,8.67,0,12.85-2.59a7.94,7.94,0,0,0,4.17-7q0-3.69-2.28-5.13T945.58,126h-8.26q-4.69,0-7.3,2.24A8,8,0,0,0,927.41,134.64Zm3.73-38.56q0,4.77,2.7,7.22t7.51,2.45q10.08,0,10.08-9.79,0-10.25-10.21-10.25-4.86,0-7.47,2.61T931.14,96.08Z"
          transform="translate(-1.28 -1.63)"/>
</svg>