<svg id="Layer_1" data-name="Layer 1" xmlns="http://www.w3.org/2000/svg" viewBox="0 0 510 286.82">
    <defs>
        <style>
            .cls-1{fill:#292f71;}.cls-2{fill:#7aaad1;}.cls-3,.cls-4{fill:#f9ce40;}.cls-3{stroke:#fff;stroke-miterlimit:10;stroke-width:3px;}.cls-5{fill:#fff;}
        </style>
    </defs>
    <title>portfolio-assurance-logo</title>
    <rect class="cls-1" width="510" height="286.82"/>
    <path class="cls-2"
          d="M257.41,80.77c-84.85-4.63-154.78,11.49-156.1,36s66.44,48,151.29,52.66,154.78-11.49,156.1-36S342.26,85.4,257.41,80.77Zm140.45,50.67c-1.08,22.69-65.89,38-144.67,34.18s-141.78-25.39-140.63-48.08,65.89-38,144.67-34.18S399,108.75,397.86,131.44Z"/>
    <polygon class="cls-3"
             points="290.93 57.54 288.04 110.61 341.11 108.09 301.52 143.59 340.87 179.34 287.8 176.45 290.32 229.53 254.82 189.93 219.07 229.28 221.96 176.21 168.89 178.74 208.48 143.23 169.13 107.49 222.2 110.37 219.68 57.3 255.18 96.89 290.93 57.54"/>
    <polygon class="cls-3"
             points="272.93 52.06 280.76 104.66 332.27 91.48 300.61 134.21 346.35 161.34 293.75 169.17 306.93 220.68 264.21 189.03 237.07 234.76 229.24 182.17 177.73 195.34 209.39 152.62 163.65 125.48 216.25 117.66 203.07 66.14 245.79 97.8 272.93 52.06"/>
    <polygon class="cls-3"
             points="254.76 50.32 272.69 100.39 320.65 77.46 297.97 125.48 348.09 143.17 298.03 161.1 320.95 209.06 272.93 186.38 255.24 236.51 237.31 186.44 189.35 209.37 212.03 161.34 161.91 143.65 211.97 125.72 189.05 77.76 237.07 100.44 254.76 50.32"/>
    <polygon class="cls-3"
             points="238.09 51.88 264.69 97.92 307.78 66.75 294.06 118.08 346.53 126.5 300.49 153.1 331.67 196.19 280.33 182.47 271.91 234.94 245.31 188.91 202.22 220.08 215.94 168.75 163.47 160.32 209.51 133.72 178.33 90.64 229.66 104.36 238.09 51.88"/>
    <path class="cls-4" d="M254.22,218.33A74.32,74.32,0,1,1,328.54,144,74.4,74.4,0,0,1,254.22,218.33Z"/>
    <path class="cls-5"
          d="M254.22,71.8A72.21,72.21,0,1,1,182,144,72.19,72.19,0,0,1,254.22,71.8m0-4.21a76.43,76.43,0,1,0,54,22.39,75.93,75.93,0,0,0-54-22.39h0Z"/>
    <polygon class="cls-1"
             points="290.93 190.95 303.68 190.95 255.18 96.89 206.68 190.95 219.38 190.95 255.18 121.57 290.93 190.95"/>
    <path class="cls-2"
          d="M401.83,144.68a31.18,31.18,0,0,1-9.51-2.65C375,158.7,319,168.81,253.19,165.62c-61-2.95-112.41-16.55-132.09-33-2,.6-4,1.2-6,1.68l-2.41.54c22.63,17.09,76.49,31.11,139.91,34.6,70.65,3.85,130.89-6.68,149.84-24.43A2.81,2.81,0,0,1,401.83,144.68Z"/>
</svg>