<svg id="Layer_1" data-name="Layer 1" xmlns="http://www.w3.org/2000/svg" viewBox="0 0 510 286.67">
    <defs>
        <style>.cls-1{fill:#7ac943;}.cls-2{fill:#ecf0f1;}.cls-3{fill:#1976d2;}.cls-4{fill:none;}</style>
    </defs>
    <title>portfolio-breathe-ez-logo</title>
    <rect class="cls-1" width="510" height="286.67"/>
    <path class="cls-2"
          d="M351.84,91.92s19.08,10.77,48.18,0c30.25-11.19,52.94,0,52.94,0s-26-6.28-51.58,4.5c-22,9.27-40,3-49.53-4.5"/>
    <path class="cls-2"
          d="M351.84,104.7s19.08,10.77,48.18,0c30.25-11.19,52.94,0,52.94,0s-26-6.28-51.58,4.5c-22,9.27-40,3-49.53-4.5"/>
    <path class="cls-3" d="M394.27,110.08H369.5v18.56h29V137H359V76.69h39.15v8.45H369.5V101.8h24.77v8.28Z"/>
    <path class="cls-3" d="M416.85,128.64h32.23V137h-44.9v-6.79l31.19-45.07h-31V76.69h43.7v6.63Z"/>
    <path class="cls-2"
          d="M351.84,117.37s19.08,10.77,48.18,0c30.25-11.19,52.94,0,52.94,0s-26-6.28-51.58,4.5c-22,9.27-40,3-49.53-4.5"/>
    <rect class="cls-4" x="345.85" y="55.65" width="113.12" height="113.12"/>
    <rect class="cls-4" x="345.85" y="55.65" width="113.12" height="113.12"/>
    <path class="cls-3"
          d="M51,136.07V75.76H71.7a36.31,36.31,0,0,1,8.78,1,18.54,18.54,0,0,1,6.59,3,13,13,0,0,1,4.12,5.07,17.27,17.27,0,0,1,1.43,7.31,13,13,0,0,1-2.24,7.46,14.39,14.39,0,0,1-6.55,5.14,14.41,14.41,0,0,1,4.54,2.05A12.66,12.66,0,0,1,91.56,110a13.41,13.41,0,0,1,1.88,4,16.65,16.65,0,0,1,.62,4.56,19.06,19.06,0,0,1-1.43,7.64,14.41,14.41,0,0,1-4.14,5.51A18.31,18.31,0,0,1,81.91,135a31.6,31.6,0,0,1-8.76,1.12H51v0Zm10.48-34.92h10.3q4.89,0,7.64-2.22a7.59,7.59,0,0,0,2.75-6.28q0-4.47-2.55-6.46t-7.93-2H61.51v16.94Zm0,7.71V127.7H73.15a14.2,14.2,0,0,0,4.54-.66A9,9,0,0,0,81,125.16a7.75,7.75,0,0,0,2-2.92,10.29,10.29,0,0,0,.66-3.77,10,10,0,0,0-2.36-7q-2.36-2.57-7.66-2.57H61.51Z"/>
    <path class="cls-3"
          d="M127,100.45q-1-.16-2-0.25t-2.09-.08a11.13,11.13,0,0,0-5.92,1.41,8.64,8.64,0,0,0-3.4,3.89v30.65h-10V91.25h9.61l0.25,5a13,13,0,0,1,4.2-4.29,11,11,0,0,1,5.9-1.55,11.89,11.89,0,0,1,2,.19,8,8,0,0,1,1.59.39Z"/>
    <path class="cls-3"
          d="M153.14,136.9a23.07,23.07,0,0,1-8.95-1.66,19.68,19.68,0,0,1-6.75-4.56,19.93,19.93,0,0,1-4.27-6.88,24.22,24.22,0,0,1-1.49-8.58v-1.66a27.66,27.66,0,0,1,1.57-9.59,21.89,21.89,0,0,1,4.31-7.29A19,19,0,0,1,144,92.06a19.53,19.53,0,0,1,8-1.64,20.39,20.39,0,0,1,8.49,1.64,16,16,0,0,1,6,4.58,19.68,19.68,0,0,1,3.52,7,32.36,32.36,0,0,1,1.16,8.91v4.31H141.83a16.06,16.06,0,0,0,1.1,4.8,11.8,11.8,0,0,0,2.42,3.79A11.12,11.12,0,0,0,149,128a11.76,11.76,0,0,0,4.74.91,13.42,13.42,0,0,0,6.48-1.49,15.2,15.2,0,0,0,4.78-4.1l5.43,5.18a18.45,18.45,0,0,1-2.67,3.13,18.15,18.15,0,0,1-3.73,2.69,21.44,21.44,0,0,1-4.83,1.91A23.24,23.24,0,0,1,153.14,136.9Zm-1.2-38.4a8.48,8.48,0,0,0-6.69,2.9,15,15,0,0,0-3.25,8.08h19.18v-0.75a18.39,18.39,0,0,0-.64-3.83,9.79,9.79,0,0,0-1.6-3.27,7.72,7.72,0,0,0-2.8-2.28A9.44,9.44,0,0,0,151.94,98.5Z"/>
    <path class="cls-3"
          d="M205.71,136.07a8.34,8.34,0,0,1-.68-1.86q-0.27-1.08-.48-2.32a17.87,17.87,0,0,1-2.22,1.95,15.28,15.28,0,0,1-2.69,1.6,16.09,16.09,0,0,1-3.19,1.08,16.42,16.42,0,0,1-3.67.39,18.09,18.09,0,0,1-6.17-1,14.5,14.5,0,0,1-4.83-2.82,13,13,0,0,1-3.15-4.25,12.38,12.38,0,0,1-1.14-5.3,14.26,14.26,0,0,1,1.37-6.38,12.35,12.35,0,0,1,4-4.64,19.07,19.07,0,0,1,6.4-2.84,34.85,34.85,0,0,1,8.64-1h6.34v-2.94a7.85,7.85,0,0,0-1.95-5.57q-2-2.09-5.92-2.09a10.34,10.34,0,0,0-3.23.48,7.85,7.85,0,0,0-2.46,1.28,5.69,5.69,0,0,0-1.57,1.93,5.3,5.3,0,0,0-.56,2.4h-10.1a10.8,10.8,0,0,1,1.31-5.12,14.05,14.05,0,0,1,3.71-4.39,18.93,18.93,0,0,1,5.82-3.09,25.57,25.57,0,0,1,14.6-.19,15.69,15.69,0,0,1,5.51,2.9A13.06,13.06,0,0,1,213,99.1a16.4,16.4,0,0,1,1.28,6.73v19.88a22.91,22.91,0,0,0,1.7,9.65v0.7H205.71Zm-11.06-7.25a11.2,11.2,0,0,0,3.25-.46,11.72,11.72,0,0,0,2.73-1.2,10.12,10.12,0,0,0,2.13-1.72,9.6,9.6,0,0,0,1.45-2V115h-5.43q-5.59,0-8.41,1.95a6.31,6.31,0,0,0-2.82,5.51A6.82,6.82,0,0,0,188,125a5.41,5.41,0,0,0,1.37,2,6.43,6.43,0,0,0,2.22,1.32,8.84,8.84,0,0,0,3.06.5h0Z"/>
    <path class="cls-3"
          d="M237.44,80.36V91.25h7.91v7.46h-7.91v25a7.74,7.74,0,0,0,.33,2.49,3.24,3.24,0,0,0,1,1.47,3.39,3.39,0,0,0,1.47.7,8.81,8.81,0,0,0,1.88.19,13.52,13.52,0,0,0,2-.15,15,15,0,0,0,1.51-.27v7.79q-1.2.33-2.8,0.64a20.33,20.33,0,0,1-3.83.31,15.5,15.5,0,0,1-4.62-.66,9.16,9.16,0,0,1-3.69-2.15,10,10,0,0,1-2.42-3.89,17.36,17.36,0,0,1-.87-5.88V98.71H220V91.25h7.37V80.36h10.07Z"/>
    <path class="cls-3"
          d="M263,96.14a16.69,16.69,0,0,1,5.47-4.2,16,16,0,0,1,7-1.51,18.52,18.52,0,0,1,6,.91,11.16,11.16,0,0,1,4.6,2.92A13.46,13.46,0,0,1,289,99.48a25.5,25.5,0,0,1,1,7.77v28.83H279.9V107.16q0-4.64-2-6.57a8.22,8.22,0,0,0-5.9-1.93,9.79,9.79,0,0,0-5.41,1.45,10.72,10.72,0,0,0-3.62,3.94v32H252.89V72.45H263V96.14h0Z"/>
    <path class="cls-3"
          d="M319.87,136.9a23.07,23.07,0,0,1-9-1.66,19.67,19.67,0,0,1-6.75-4.56,19.94,19.94,0,0,1-4.27-6.88,24.22,24.22,0,0,1-1.49-8.58v-1.66A27.66,27.66,0,0,1,300,104a21.9,21.9,0,0,1,4.31-7.29,19,19,0,0,1,6.44-4.64,19.53,19.53,0,0,1,8-1.64,20.4,20.4,0,0,1,8.49,1.64,16,16,0,0,1,6,4.58,19.68,19.68,0,0,1,3.52,7,32.34,32.34,0,0,1,1.16,8.91v4.31H308.56a16,16,0,0,0,1.1,4.8,11.8,11.8,0,0,0,2.42,3.79A11.13,11.13,0,0,0,315.7,128a11.76,11.76,0,0,0,4.74.91,13.42,13.42,0,0,0,6.48-1.49,15.2,15.2,0,0,0,4.78-4.1l5.43,5.18a18.42,18.42,0,0,1-2.67,3.13,18.15,18.15,0,0,1-3.73,2.69,21.44,21.44,0,0,1-4.83,1.91A23.3,23.3,0,0,1,319.87,136.9Zm-1.2-38.4a8.48,8.48,0,0,0-6.69,2.9,15,15,0,0,0-3.25,8.08h19.18v-0.75a18.43,18.43,0,0,0-.64-3.83,9.79,9.79,0,0,0-1.6-3.27,7.72,7.72,0,0,0-2.8-2.28,9.43,9.43,0,0,0-4.2-.85h0Z"/>
    <path class="cls-3" d="M105.87,182.64h-4.39V171.37H90.14v11.27h-4.4V157.28h4.41v10.55h11.34V157.28h4.39v25.35h0Z"/>
    <path class="cls-3"
          d="M109.87,173a11.64,11.64,0,0,1,.6-3.8,9,9,0,0,1,1.72-3,7.9,7.9,0,0,1,2.74-2,8.84,8.84,0,0,1,3.67-.73,9,9,0,0,1,3.71.73,7.87,7.87,0,0,1,2.76,2,8.91,8.91,0,0,1,1.72,3,11.8,11.8,0,0,1,.59,3.8v0.37a11.9,11.9,0,0,1-.59,3.81,8.8,8.8,0,0,1-1.72,3,7.84,7.84,0,0,1-2.75,2,9.79,9.79,0,0,1-7.38,0,7.84,7.84,0,0,1-2.75-2,8.91,8.91,0,0,1-1.72-3,11.74,11.74,0,0,1-.6-3.81V173Zm4.23,0.37a10.66,10.66,0,0,0,.26,2.4,6,6,0,0,0,.82,2,4.19,4.19,0,0,0,6.91,0,6.27,6.27,0,0,0,.82-2,10.33,10.33,0,0,0,.27-2.4V173a10.14,10.14,0,0,0-.27-2.38,6.16,6.16,0,0,0-.83-2,4.27,4.27,0,0,0-1.42-1.35,4,4,0,0,0-2-.51,3.88,3.88,0,0,0-2,.51,4.31,4.31,0,0,0-1.4,1.35,6,6,0,0,0-.82,2,10.47,10.47,0,0,0-.26,2.38v0.37H114.1Z"/>
    <path class="cls-3"
          d="M134.95,163.8l0.12,2a6.5,6.5,0,0,1,2.29-1.71,7.57,7.57,0,0,1,3.14-.61,6.73,6.73,0,0,1,3.08.69,4.63,4.63,0,0,1,2.09,2.2,6.75,6.75,0,0,1,5.78-2.89,8.08,8.08,0,0,1,2.61.39,4.69,4.69,0,0,1,1.94,1.24,5.65,5.65,0,0,1,1.22,2.17,10.44,10.44,0,0,1,.43,3.19v12.21h-4.23V170.41a5.26,5.26,0,0,0-.24-1.72,2.54,2.54,0,0,0-.68-1.07,2.46,2.46,0,0,0-1.06-.56,5.71,5.71,0,0,0-1.4-.16,3.52,3.52,0,0,0-2.36.78,4.08,4.08,0,0,0-1.28,2,1.79,1.79,0,0,0,0,.18v12.73h-4.23V170.46a5.15,5.15,0,0,0-.24-1.67,2.68,2.68,0,0,0-.68-1.1,2.59,2.59,0,0,0-1.07-.6,5,5,0,0,0-1.41-.18,4.11,4.11,0,0,0-2.24.56,3.8,3.8,0,0,0-1.37,1.52v13.65H131V163.8h3.95Z"/>
    <path class="cls-3"
          d="M170.3,183a9.7,9.7,0,0,1-3.76-.7,8.27,8.27,0,0,1-2.84-1.92,8.39,8.39,0,0,1-1.79-2.89,10.17,10.17,0,0,1-.63-3.6v-0.7a11.63,11.63,0,0,1,.66-4,9.2,9.2,0,0,1,1.81-3.06,8,8,0,0,1,2.71-2,8.21,8.21,0,0,1,3.35-.69,8.58,8.58,0,0,1,3.57.69,6.73,6.73,0,0,1,2.51,1.92,8.26,8.26,0,0,1,1.48,2.94,13.61,13.61,0,0,1,.49,3.74v1.81H165.54a6.77,6.77,0,0,0,.46,2,5,5,0,0,0,1,1.59,4.67,4.67,0,0,0,1.52,1.05,4.94,4.94,0,0,0,2,.38,5.64,5.64,0,0,0,2.73-.63,6.39,6.39,0,0,0,2-1.72l2.28,2.18a7.73,7.73,0,0,1-1.12,1.31,7.62,7.62,0,0,1-1.57,1.13,9,9,0,0,1-2,.8A9.8,9.8,0,0,1,170.3,183Zm-0.51-16.14a3.56,3.56,0,0,0-2.81,1.22,6.32,6.32,0,0,0-1.37,3.4h8.06v-0.31a7.74,7.74,0,0,0-.27-1.61,4.11,4.11,0,0,0-.67-1.38,3.24,3.24,0,0,0-1.18-1,4,4,0,0,0-1.76-.34v0Z"/>
    <path class="cls-3"
          d="M203.68,176.11a3.86,3.86,0,0,0-.23-1.37,2.7,2.7,0,0,0-.83-1.11,6.9,6.9,0,0,0-1.65-1,25.33,25.33,0,0,0-2.71-1,26,26,0,0,1-3.34-1.24,11.52,11.52,0,0,1-2.64-1.62,6.93,6.93,0,0,1-1.73-2.12,5.86,5.86,0,0,1-.63-2.75,6.14,6.14,0,0,1,.65-2.82,6.69,6.69,0,0,1,1.84-2.23,8.74,8.74,0,0,1,2.84-1.46,12.1,12.1,0,0,1,3.66-.52,11.25,11.25,0,0,1,3.85.62,8.62,8.62,0,0,1,2.88,1.68,7.31,7.31,0,0,1,1.8,2.46,7.23,7.23,0,0,1,.63,3h-4.39a4.85,4.85,0,0,0-.29-1.7,3.53,3.53,0,0,0-.88-1.34,4,4,0,0,0-1.5-.88,6.56,6.56,0,0,0-2.14-.31,6.93,6.93,0,0,0-2,.26,4,4,0,0,0-1.42.73,2.88,2.88,0,0,0-.84,1.11,3.57,3.57,0,0,0-.27,1.39,2.79,2.79,0,0,0,1.33,2.35,14.19,14.19,0,0,0,4.07,1.74,23.52,23.52,0,0,1,3.71,1.39,10.64,10.64,0,0,1,2.6,1.73,6.27,6.27,0,0,1,1.54,2.18,7,7,0,0,1,.51,2.73,6.39,6.39,0,0,1-.64,2.88,6.16,6.16,0,0,1-1.81,2.18,8.5,8.5,0,0,1-2.85,1.38,13.52,13.52,0,0,1-3.73.48,13.32,13.32,0,0,1-3.6-.5,10.19,10.19,0,0,1-3.19-1.5,7.81,7.81,0,0,1-2.27-2.5,6.93,6.93,0,0,1-.86-3.52h4.41A4.6,4.6,0,0,0,194,177a3.85,3.85,0,0,0,1.17,1.41,4.91,4.91,0,0,0,1.75.8,9,9,0,0,0,2.18.25,5.43,5.43,0,0,0,3.46-.93A3,3,0,0,0,203.68,176.11Z"/>
    <path class="cls-3"
          d="M210.75,173a11.64,11.64,0,0,1,.6-3.8,9,9,0,0,1,1.72-3,7.9,7.9,0,0,1,2.74-2,8.84,8.84,0,0,1,3.67-.73,9,9,0,0,1,3.71.73,7.87,7.87,0,0,1,2.76,2,8.91,8.91,0,0,1,1.72,3,11.8,11.8,0,0,1,.59,3.8v0.37a11.9,11.9,0,0,1-.59,3.81,8.8,8.8,0,0,1-1.72,3,7.84,7.84,0,0,1-2.75,2,9.79,9.79,0,0,1-7.38,0,7.84,7.84,0,0,1-2.75-2,8.91,8.91,0,0,1-1.72-3,11.74,11.74,0,0,1-.6-3.81V173Zm4.23,0.37a10.66,10.66,0,0,0,.26,2.4,6,6,0,0,0,.82,2,4.19,4.19,0,0,0,6.91,0,6.27,6.27,0,0,0,.82-2,10.33,10.33,0,0,0,.27-2.4V173a10.14,10.14,0,0,0-.27-2.38,6.16,6.16,0,0,0-.83-2,4.27,4.27,0,0,0-1.42-1.35,4,4,0,0,0-2-.51,3.88,3.88,0,0,0-2,.51,4.31,4.31,0,0,0-1.4,1.35,6,6,0,0,0-.82,2A10.47,10.47,0,0,0,215,173v0.37h0Z"/>
    <path class="cls-3" d="M236.34,182.64h-4.23V155.89h4.23v26.75Z"/>
    <path class="cls-3"
          d="M252.36,180.79a6,6,0,0,1-2.19,1.62,7.65,7.65,0,0,1-3.1.57,7.77,7.77,0,0,1-2.53-.39,4.91,4.91,0,0,1-2-1.24,5.71,5.71,0,0,1-1.27-2.18,10,10,0,0,1-.45-3.2V163.8H245V176a5,5,0,0,0,.24,1.7,2.9,2.9,0,0,0,.65,1.08,2.26,2.26,0,0,0,.95.57,3.83,3.83,0,0,0,1.13.17,5.2,5.2,0,0,0,2.65-.59,3.78,3.78,0,0,0,1.52-1.62V163.8h4.23v18.84h-4Z"/>
    <path class="cls-3"
          d="M266.07,159.22v4.58h3.33v3.13h-3.33v10.52a3.25,3.25,0,0,0,.14,1,1.36,1.36,0,0,0,.4.62,1.43,1.43,0,0,0,.62.3,3.7,3.7,0,0,0,.79.08,5.68,5.68,0,0,0,.84-0.06l0.64-.11v3.27q-0.5.14-1.18,0.27a8.58,8.58,0,0,1-1.61.13,6.51,6.51,0,0,1-1.94-.28,3.86,3.86,0,0,1-1.55-.91,4.21,4.21,0,0,1-1-1.64,7.31,7.31,0,0,1-.37-2.47V166.93h-3.1V163.8h3.1v-4.58h4.22Z"/>
    <path class="cls-3"
          d="M272.63,158.9a2.25,2.25,0,0,1,.62-1.62,2.33,2.33,0,0,1,1.77-.64,2.36,2.36,0,0,1,1.78.64,2.23,2.23,0,0,1,.63,1.62,2.18,2.18,0,0,1-.63,1.59,2.38,2.38,0,0,1-1.78.64,2.35,2.35,0,0,1-1.77-.64A2.19,2.19,0,0,1,272.63,158.9Zm4.49,23.73h-4.23V163.8h4.23v18.84h0Z"/>
    <path class="cls-3"
          d="M280.94,173a11.64,11.64,0,0,1,.6-3.8,9,9,0,0,1,1.72-3,7.9,7.9,0,0,1,2.74-2,8.84,8.84,0,0,1,3.67-.73,9,9,0,0,1,3.71.73,7.86,7.86,0,0,1,2.76,2,8.91,8.91,0,0,1,1.72,3,11.8,11.8,0,0,1,.59,3.8v0.37a11.88,11.88,0,0,1-.59,3.81,8.8,8.8,0,0,1-1.72,3,7.84,7.84,0,0,1-2.75,2,9.79,9.79,0,0,1-7.38,0,7.84,7.84,0,0,1-2.75-2,8.91,8.91,0,0,1-1.72-3,11.74,11.74,0,0,1-.6-3.81V173Zm4.23,0.37a10.66,10.66,0,0,0,.26,2.4,6,6,0,0,0,.82,2,4.19,4.19,0,0,0,6.91,0,6.27,6.27,0,0,0,.82-2,10.32,10.32,0,0,0,.27-2.4V173a10.14,10.14,0,0,0-.27-2.38,6.16,6.16,0,0,0-.83-2,4.26,4.26,0,0,0-1.42-1.35,4,4,0,0,0-2-.51,3.88,3.88,0,0,0-2,.51,4.32,4.32,0,0,0-1.4,1.35,6,6,0,0,0-.82,2,10.47,10.47,0,0,0-.26,2.38v0.37h-0.08Z"/>
    <path class="cls-3"
          d="M306,163.8l0.12,2.18a6.89,6.89,0,0,1,2.39-1.86,7.14,7.14,0,0,1,3.1-.66,7.65,7.65,0,0,1,2.46.37A4.55,4.55,0,0,1,316,165a5.61,5.61,0,0,1,1.21,2.18,10.84,10.84,0,0,1,.43,3.26v12.17h-4.23V170.43a5.39,5.39,0,0,0-.22-1.65,2.68,2.68,0,0,0-.64-1.09,2.39,2.39,0,0,0-1-.6,5,5,0,0,0-1.42-.18,4.08,4.08,0,0,0-2.27.63,4.56,4.56,0,0,0-1.54,1.69v13.41H302V163.8h4Z"/>
    <path class="cls-3"
          d="M332.43,177.52a2.37,2.37,0,0,0-.15-0.84,1.72,1.72,0,0,0-.58-0.73,4.7,4.7,0,0,0-1.23-.64,14.26,14.26,0,0,0-2.06-.56,18.41,18.41,0,0,1-2.76-.78,8.49,8.49,0,0,1-2.13-1.14,5,5,0,0,1-1.38-1.58,4.28,4.28,0,0,1-.5-2.09,4.92,4.92,0,0,1,.51-2.19,5.45,5.45,0,0,1,1.45-1.82,7.26,7.26,0,0,1,2.3-1.25,9.29,9.29,0,0,1,3-.46,10.09,10.09,0,0,1,3.16.46,7.19,7.19,0,0,1,2.38,1.27,5.43,5.43,0,0,1,2,4.27h-4.23a2.76,2.76,0,0,0-.21-1.05,2.63,2.63,0,0,0-.63-0.91,3,3,0,0,0-1-.64,4,4,0,0,0-1.44-.24,4.35,4.35,0,0,0-1.39.2,3.1,3.1,0,0,0-1,.52,2,2,0,0,0-.58.75,2.17,2.17,0,0,0-.19.9,1.92,1.92,0,0,0,.17.84,1.7,1.7,0,0,0,.62.66,5.13,5.13,0,0,0,1.19.55,17.66,17.66,0,0,0,1.88.5,22.3,22.3,0,0,1,2.93.82,8.26,8.26,0,0,1,2.19,1.15,4.66,4.66,0,0,1,1.37,1.6,4.77,4.77,0,0,1,.47,2.19,4.94,4.94,0,0,1-.54,2.3,5.29,5.29,0,0,1-1.54,1.8,7.49,7.49,0,0,1-2.41,1.18,11,11,0,0,1-3.1.44,9.87,9.87,0,0,1-3.42-.55A7.84,7.84,0,0,1,323,181a6,6,0,0,1-1.52-2,5.46,5.46,0,0,1-.51-2.29h4.11a3.23,3.23,0,0,0,.4,1.46,2.94,2.94,0,0,0,.89,1,3.73,3.73,0,0,0,1.22.53,5.85,5.85,0,0,0,1.39.17,4.28,4.28,0,0,0,2.54-.64A2,2,0,0,0,332.43,177.52Z"/>
    <path class="cls-3"
          d="M344.16,181.56a7.73,7.73,0,0,1-.23,1.81,9.06,9.06,0,0,1-.66,1.84,10.31,10.31,0,0,1-1,1.71,8.65,8.65,0,0,1-1.36,1.44L338.59,187q0.37-.58.7-1.18a9.14,9.14,0,0,0,.57-1.24,8.64,8.64,0,0,0,.37-1.35,8,8,0,0,0,.14-1.53v-3.15h3.81Z"/>
    <path class="cls-3" d="M361.8,179.12h11.51v3.52H357.4V157.28h4.41v21.84h0Z"/>
    <path class="cls-3" d="M381.1,179.12h11.51v3.52H376.69V157.28h4.41v21.84Z"/>
    <path class="cls-3"
          d="M415.33,174.38a11,11,0,0,1-.87,3.44,8.21,8.21,0,0,1-1.93,2.73,8.73,8.73,0,0,1-3,1.79,12.1,12.1,0,0,1-4.12.64,10.24,10.24,0,0,1-4.22-.84,9,9,0,0,1-3.22-2.4,10.85,10.85,0,0,1-2-3.77,16.13,16.13,0,0,1-.71-5v-2.05a15.78,15.78,0,0,1,.73-5,10.92,10.92,0,0,1,2.09-3.79,9.25,9.25,0,0,1,3.28-2.42,10.52,10.52,0,0,1,4.31-.85,11.35,11.35,0,0,1,4,.65,8.56,8.56,0,0,1,3,1.81,8.3,8.3,0,0,1,1.9,2.76,11.82,11.82,0,0,1,.88,3.5h-4.39a9.84,9.84,0,0,0-.48-2.16,4.6,4.6,0,0,0-1-1.63,4,4,0,0,0-1.58-1,6.8,6.8,0,0,0-2.32-.35,5.75,5.75,0,0,0-2.62.57,5,5,0,0,0-1.87,1.64,7.69,7.69,0,0,0-1.12,2.64,15.42,15.42,0,0,0-.37,3.57V171a16.56,16.56,0,0,0,.33,3.45,8.12,8.12,0,0,0,1,2.66,4.93,4.93,0,0,0,1.79,1.72,5.33,5.33,0,0,0,2.63.61,7.64,7.64,0,0,0,2.41-.33,4.1,4.1,0,0,0,1.63-1,4.44,4.44,0,0,0,1-1.58,9.5,9.5,0,0,0,.51-2.16h4.33Z"/>
    <path class="cls-3"
          d="M419,180.53a2.33,2.33,0,0,1,.64-1.68,2.8,2.8,0,0,1,3.64,0,2.33,2.33,0,0,1,.64,1.68,2.25,2.25,0,0,1-.64,1.65,2.45,2.45,0,0,1-1.83.65,2.92,2.92,0,0,1-1-.17,2.16,2.16,0,0,1-.78-0.49,2.13,2.13,0,0,1-.48-0.73A2.44,2.44,0,0,1,419,180.53Z"/>
</svg>